<svg width="662" height="614" viewBox="0 0 662 614" fill="none" xmlns="http://www.w3.org/2000/svg">
<path id="astrik_yellow" d="M301.5 505.5L211.5 613.5L79.5 514.5L172.5 382.5C187.5 361.5 219 361.5 244.5 354L232.5 315C207 322.5 181.5 342 157.5 333L5.54323e-06 276L55.5 120L201 166.5C225 175.5 234 207 249 228L283.5 204C268.5 183 241.5 163.5 243 138L246 -8.9407e-05H411L415.5 138C415.5 163.5 390 183 375 204L408 228C423 207 432 175.5 457.5 166.5L601.5 120L661.5 276L501 333C475.5 342 450 322.5 424.5 315L412.5 354C438 361.5 469.5 361.5 486 381L585 514.5L453 613.5L357 504C340.5 484.5 349.5 454.5 349.5 429H307.5C307.5 454.5 318 484.5 301.5 505.5Z" fill="#FF8D4D"/>
</svg>
